<svg width="24" height="24" viewBox="0 -960 960 960" xmlns="http://www.w3.org/2000/svg" xmlns:xlink="http://www.w3.org/1999/xlink" fill="#E8EAED" overflow="hidden"><style>
.MsftOfcThm_Background1_Fill_v2 {
 fill:#FFFFFF; 
}
</style>
<path d="M200-280 200-560 280-560 280-280 200-280ZM440-280 440-560 520-560 520-280 440-280ZM80-640 80-720 480-920 880-720 880-640 80-640ZM259-720 701-720 480-830 259-720ZM80-120 80-200 562-200C563.333-186 565-172.5 567-159.5 569-146.5 572-133.333 576-120L80-120ZM680-430 680-560 760-560 760-470 680-430ZM800 0C754-11.3333 715.833-37.8333 685.5-79.5 655.167-121.167 640-167.333 640-218L640-320 800-400 960-320 960-218C960-167.333 944.833-121.167 914.5-79.5 884.167-37.8333 846-11.3333 800 0ZM771-120 910-258 868-300 771-205 732-244 690-201 771-120ZM259-720 701-720 259-720Z" class="MsftOfcThm_Background1_Fill_v2" stroke="none" stroke-width="1" stroke-linecap="butt" stroke-linejoin="miter" stroke-miterlimit="4" fill="#FFFFFF" fill-opacity="1"/></svg>