<svg width="24" height="24" viewBox="0 -960 960 960" xmlns="http://www.w3.org/2000/svg" xmlns:xlink="http://www.w3.org/1999/xlink" fill="#E8EAED" overflow="hidden"><style>
.MsftOfcThm_Background1_Fill_v2 {
 fill:#FFFFFF; 
}
</style>
<path d="M640-520C651.333-520 660.833-523.833 668.5-531.5 676.167-539.167 680-548.667 680-560 680-571.333 676.167-580.833 668.5-588.5 660.833-596.167 651.333-600 640-600 628.667-600 619.167-596.167 611.5-588.5 603.833-580.833 600-571.333 600-560 600-548.667 603.833-539.167 611.5-531.5 619.167-523.833 628.667-520 640-520ZM320-600 520-600 520-680 320-680 320-600ZM180-120C157.333-196 135-271.833 113-347.5 91-423.167 80-500.667 80-580 80-641.333 101.333-693.333 144-736 186.667-778.667 238.667-800 300-800L500-800C519.333-825.333 542.833-845 570.5-859 598.167-873 628-880 660-880 676.667-880 690.833-874.167 702.5-862.5 714.167-850.833 720-836.667 720-820 720-816 719.5-812 718.5-808 717.5-804 716.333-800.333 715-797 712.333-789.667 709.833-782.167 707.5-774.5 705.167-766.833 703.333-759 702-751L793-660 880-660 880-381 767-344 700-120 480-120 480-200 400-200 400-120 180-120ZM240-200 320-200 320-280 560-280 560-200 640-200 702-406 800-439 800-580 760-580 620-720C620-733.333 620.833-746.167 622.5-758.5 624.167-770.833 626.667-783.333 630-796 610.667-790.667 593.667-781.5 579-768.5 564.333-755.5 553.667-739.333 547-720L300-720C261.333-720 228.333-706.333 201-679 173.667-651.667 160-618.667 160-580 160-514.667 169-450.833 187-388.5 205-326.167 222.667-263.333 240-200Z" class="MsftOfcThm_Background1_Fill_v2" stroke="none" stroke-width="1" stroke-linecap="butt" stroke-linejoin="miter" stroke-miterlimit="4" fill="#FFFFFF" fill-opacity="1"/></svg>