<svg width="24" height="24" viewBox="0 -960 960 960" xmlns="http://www.w3.org/2000/svg" xmlns:xlink="http://www.w3.org/1999/xlink" fill="#E8EAED" overflow="hidden"><path d="M580-360C602-360 620.833-367.833 636.5-383.5 652.167-399.167 660-418 660-440 660-462 652.167-480.833 636.5-496.5 620.833-512.167 602-520 580-520 570-520 560.5-518.167 551.5-514.5 542.5-510.833 534.333-506 527-500L420-554 420-566 527-620C534.333-614 542.5-609.167 551.5-605.5 560.5-601.833 570-600 580-600 602-600 620.833-607.833 636.5-623.5 652.167-639.167 660-658 660-680 660-702 652.167-720.833 636.5-736.5 620.833-752.167 602-760 580-760 558-760 539.167-752.167 523.5-736.5 507.833-720.833 500-702 500-680L500-674 393-620C385.667-626 377.5-630.833 368.5-634.5 359.5-638.167 350-640 340-640 318-640 299.167-632.167 283.5-616.5 267.833-600.833 260-582 260-560 260-538 267.833-519.167 283.5-503.5 299.167-487.833 318-480 340-480 350-480 359.5-481.833 368.5-485.5 377.5-489.167 385.667-494 393-500L500-446 500-440C500-418 507.833-399.167 523.5-383.5 539.167-367.833 558-360 580-360ZM80-80 80-800C80-822 87.8333-840.833 103.5-856.5 119.167-872.167 138-880 160-880L800-880C822-880 840.833-872.167 856.5-856.5 872.167-840.833 880-822 880-800L880-320C880-298 872.167-279.167 856.5-263.5 840.833-247.833 822-240 800-240L240-240 80-80ZM206-320 800-320 800-800 160-800 160-275 206-320ZM160-320 160-800 160-320Z" stroke="none" stroke-width="1" stroke-linecap="butt" stroke-linejoin="miter" stroke-miterlimit="4" fill="#7CFC00" fill-opacity="1"/></svg>