<svg width="24" height="24" viewBox="0 -960 960 960" xmlns="http://www.w3.org/2000/svg" xmlns:xlink="http://www.w3.org/1999/xlink" fill="#E8EAED" overflow="hidden"><style>
.MsftOfcThm_Background1_Fill_v2 {
 fill:#FFFFFF; 
}
</style>
<path d="M475-160C477.667-160 480.333-160.667 483-162 485.667-163.333 487.667-164.667 489-166L817-494C825-502 830.833-511 834.5-521 838.167-531 840-541 840-551 840-561.667 838.167-571.833 834.5-581.5 830.833-591.167 825-599.667 817-607L647-777C639.667-785 631.167-790.833 621.5-794.5 611.833-798.167 601.667-800 591-800 581-800 571-798.167 561-794.5 551-790.833 542-785 534-777L523-766 597-691C607-681.667 614.333-671 619-659 623.667-647 626-634.333 626-621 626-593 616.5-569.5 597.5-550.5 578.5-531.5 555-522 527-522 513.667-522 500.833-524.333 488.5-529 476.167-533.667 465.333-540.667 456-550L381-624 206-449C204-447 202.5-444.833 201.5-442.5 200.5-440.167 200-437.667 200-435 200-429.667 202-424.833 206-420.5 210-416.167 214.667-414 220-414 222.667-414 225.333-414.667 228-416 230.667-417.333 232.667-418.667 234-420L370-556 426-500 291-364C289-362 287.5-359.833 286.5-357.5 285.5-355.167 285-352.667 285-350 285-344.667 287-340 291-336 295-332 299.667-330 305-330 307.667-330 310.333-330.667 313-332 315.667-333.333 317.667-334.667 319-336L455-471 511-415 376-279C374-277.667 372.5-275.667 371.5-273 370.5-270.333 370-267.667 370-265 370-259.667 372-255 376-251 380-247 384.667-245 390-245 392.667-245 395.167-245.5 397.5-246.5 399.833-247.5 402-249 404-251L540-386 596-330 460-194C458-192 456.5-189.833 455.5-187.5 454.5-185.167 454-182.667 454-180 454-174.667 456.167-170 460.5-166 464.833-162 469.667-160 475-160ZM474-80C449.333-80 427.5-88.1667 408.5-104.5 389.5-120.833 378.333-141.333 375-166 352.333-169.333 333.333-178.667 318-194 302.667-209.333 293.333-228.333 290-251 267.333-254.333 248.5-263.833 233.5-279.5 218.5-295.167 209.333-314 206-336 180.667-339.333 160-350.333 144-369 128-387.667 120-409.667 120-435 120-448.333 122.5-461.167 127.5-473.5 132.5-485.833 139.667-496.667 149-506L381-737 512-606C513.333-604 515.333-602.5 518-601.5 520.667-600.5 523.333-600 526-600 532-600 537-601.833 541-605.5 545-609.167 547-614 547-620 547-622.667 546.5-625.333 545.5-628 544.5-630.667 543-632.667 541-634L398-777C390.667-785 382.167-790.833 372.5-794.5 362.833-798.167 352.667-800 342-800 332-800 322-798.167 312-794.5 302-790.833 293-785 285-777L144-635C138-629 133-622 129-614 125-606 122.333-598 121-590 119.667-582 119.667-573.833 121-565.5 122.333-557.167 125-549.333 129-542L71-484C59.6667-499.333 51.3333-516.167 46-534.5 40.6667-552.833 38.6667-571.333 40-590 41.3333-608.667 46-626.833 54-644.5 62-662.167 73-678 87-692L228-833C244-848.333 261.833-860 281.5-868 301.167-876 321.333-880 342-880 362.667-880 382.833-876 402.5-868 422.167-860 439.667-848.333 455-833L466-822 477-833C493-848.333 510.833-860 530.5-868 550.167-876 570.333-880 591-880 611.667-880 631.833-876 651.5-868 671.167-860 688.667-848.333 704-833L873-664C888.333-648.667 900-631 908-611 916-591 920-570.667 920-550 920-529.333 916-509.167 908-489.5 900-469.833 888.333-452.333 873-437L545-110C535.667-100.667 524.833-93.3333 512.5-88 500.167-82.6667 487.333-80 474-80Z" class="MsftOfcThm_Background1_Fill_v2" stroke="none" stroke-width="1" stroke-linecap="butt" stroke-linejoin="miter" stroke-miterlimit="4" fill="#FFFFFF" fill-opacity="1"/></svg>