<svg width="24" height="24" viewBox="0 -960 960 960" xmlns="http://www.w3.org/2000/svg" xmlns:xlink="http://www.w3.org/1999/xlink" fill="#E8EAED" overflow="hidden"><path d="M560-440C526.667-440 498.333-451.667 475-475 451.667-498.333 440-526.667 440-560 440-593.333 451.667-621.667 475-645 498.333-668.333 526.667-680 560-680 593.333-680 621.667-668.333 645-645 668.333-621.667 680-593.333 680-560 680-526.667 668.333-498.333 645-475 621.667-451.667 593.333-440 560-440ZM280-320C258-320 239.167-327.833 223.5-343.5 207.833-359.167 200-378 200-400L200-720C200-742 207.833-760.833 223.5-776.5 239.167-792.167 258-800 280-800L840-800C862-800 880.833-792.167 896.5-776.5 912.167-760.833 920-742 920-720L920-400C920-378 912.167-359.167 896.5-343.5 880.833-327.833 862-320 840-320L280-320ZM360-400 760-400C760-422 767.833-440.833 783.5-456.5 799.167-472.167 818-480 840-480L840-640C818-640 799.167-647.833 783.5-663.5 767.833-679.167 760-698 760-720L360-720C360-698 352.167-679.167 336.5-663.5 320.833-647.833 302-640 280-640L280-480C302-480 320.833-472.167 336.5-456.5 352.167-440.833 360-422 360-400ZM800-160 120-160C98-160 79.1667-167.833 63.5-183.5 47.8333-199.167 40-218 40-240L40-680 120-680 120-240 800-240 800-160ZM280-400 280-720 280-400Z" stroke="none" stroke-width="1" stroke-linecap="butt" stroke-linejoin="miter" stroke-miterlimit="4" fill="#7CFC00" fill-opacity="1"/></svg>