<svg width="24" height="24" viewBox="0 -960 960 960" xmlns="http://www.w3.org/2000/svg" xmlns:xlink="http://www.w3.org/1999/xlink" fill="#E8EAED" overflow="hidden"><path d="M480-640 280-440 336-384 440-487 440-80 520-80 520-487 624-384 680-440 480-640ZM146-260C124.667-292.667 108.333-327.667 97-365 85.6667-402.333 80-440.667 80-480 80-535.333 90.5-587.333 111.5-636 132.5-684.667 161-727 197-763 233-799 275.333-827.5 324-848.5 372.667-869.5 424.667-880 480-880 535.333-880 587.333-869.5 636-848.5 684.667-827.5 727-799 763-763 799-727 827.5-684.667 848.5-636 869.5-587.333 880-535.333 880-480 880-440.667 874.333-402.333 863-365 851.667-327.667 835.333-292.667 814-260L756-318C770.667-342.667 781.667-368.667 789-396 796.333-423.333 800-451.333 800-480 800-569.333 769-645 707-707 645-769 569.333-800 480-800 390.667-800 315-769 253-707 191-645 160-569.333 160-480 160-451.333 163.667-423.333 171-396 178.333-368.667 189.333-342.667 204-318L146-260Z" stroke="none" stroke-width="1" stroke-linecap="butt" stroke-linejoin="miter" stroke-miterlimit="4" fill="#7CFC00" fill-opacity="1"/></svg>