<svg width="24" height="24" viewBox="0 -960 960 960" xmlns="http://www.w3.org/2000/svg" xmlns:xlink="http://www.w3.org/1999/xlink" fill="#E8EAED" overflow="hidden"><path d="M480-600 340-740 480-880 620-740 480-600ZM40-160 40-320C40-342.667 47.8333-361.667 63.5-377 79.1667-392.333 98-400 120-400L251-400C264.333-400 277-396.667 289-390 301-383.333 310.667-374.333 318-363 337.333-337 361.167-316.667 389.5-302 417.833-287.333 448-280 480-280 512.667-280 543.167-287.333 571.5-302 599.833-316.667 623.333-337 642-363 650.667-374.333 660.833-383.333 672.5-390 684.167-396.667 696.333-400 709-400L840-400C862.667-400 881.667-392.333 897-377 912.333-361.667 920-342.667 920-320L920-160 640-160 640-251C616.667-234.333 591.5-221.667 564.5-213 537.5-204.333 509.333-200 480-200 451.333-200 423.333-204.5 396-213.5 368.667-222.5 343.333-235.333 320-252L320-160 40-160ZM160-440C126.667-440 98.3333-451.667 75-475 51.6667-498.333 40-526.667 40-560 40-594 51.6667-622.5 75-645.5 98.3333-668.5 126.667-680 160-680 194-680 222.5-668.5 245.5-645.5 268.5-622.5 280-594 280-560 280-526.667 268.5-498.333 245.5-475 222.5-451.667 194-440 160-440ZM800-440C766.667-440 738.333-451.667 715-475 691.667-498.333 680-526.667 680-560 680-594 691.667-622.5 715-645.5 738.333-668.5 766.667-680 800-680 834-680 862.5-668.5 885.5-645.5 908.5-622.5 920-594 920-560 920-526.667 908.5-498.333 885.5-475 862.5-451.667 834-440 800-440Z" stroke="none" stroke-width="1" stroke-linecap="butt" stroke-linejoin="miter" stroke-miterlimit="4" fill="#7CFC00" fill-opacity="1"/></svg>