<svg viewBox="0 0 207.75 44.75" xmlns="http://www.w3.org/2000/svg" xmlns:xlink="http://www.w3.org/1999/xlink" id="Layer_2" overflow="hidden"><defs></defs><g id="Layer_1-2"><path d="M26.07 42.5C23.48 44 20.56 44.75 17.34 44.75 13.75 44.75 10.64 43.96 8.03 42.4 5.41 40.83 3.42 38.69 2.06 35.99 0.7 33.28 0.01 30.29 0.01 27.02 0.01 23.75 0.74 20.59 2.19 17.84 3.65 15.09 5.71 12.9 8.4 11.29 11.08 9.68 14.18 8.87 17.68 8.87 20.64 8.87 23.3 9.46 25.66 10.64 28.03 11.82 30.03 13.55 31.67 15.83L25.8 20.67C23.8 17.71 21.09 16.23 17.68 16.23 14.72 16.23 12.4 17.21 10.72 19.16 9.04 21.12 8.2 23.62 8.2 26.67 8.2 29.72 9.1 32.2 10.9 34.25 12.7 36.3 15.1 37.32 18.1 37.32 19.92 37.32 21.63 36.85 23.22 35.92 24.81 34.99 26.11 33.68 27.11 32L32.64 36.03C30.87 38.85 28.68 41.01 26.09 42.51Z" stroke="none" stroke-width="1" stroke-linecap="butt" stroke-linejoin="miter" stroke-miterlimit="4" fill="#7CFC00" fill-opacity="1"/><path d="M73.56 36.36C74.24 37 75.11 37.32 76.15 37.32 77.11 37.32 77.99 37.07 78.81 36.57L80.72 42.64C78.63 44.05 76.4 44.76 74.03 44.76 71.85 44.76 69.96 44.16 68.37 42.95 66.78 41.74 65.82 40.1 65.5 38 64.32 40.18 62.63 41.86 60.45 43.02 58.27 44.18 55.72 44.76 52.81 44.76 49.49 44.76 46.59 43.97 44.11 42.37 41.63 40.78 39.73 38.63 38.41 35.92 37.09 33.21 36.43 30.2 36.43 26.88 36.43 23.56 37.08 20.53 38.37 17.8 39.67 15.07 41.55 12.9 44.03 11.28 46.51 9.67 49.45 8.86 52.87 8.86 55.64 8.86 58.03 9.38 60.04 10.43 62.04 11.48 63.52 12.96 64.48 14.87L64.48 9.68 72.53 9.68 72.53 33.5C72.53 34.77 72.87 35.73 73.55 36.37ZM47.36 34.48C49.13 36.46 51.48 37.45 54.39 37.45 57.3 37.45 59.74 36.47 61.56 34.52 63.38 32.56 64.29 29.99 64.29 26.81 64.29 23.63 63.37 21.11 61.53 19.13 59.69 17.15 57.29 16.16 54.33 16.16 51.37 16.16 48.97 17.17 47.27 19.2 45.57 21.23 44.71 23.76 44.71 26.81 44.71 29.86 45.6 32.51 47.37 34.49Z" stroke="none" stroke-width="1" stroke-linecap="butt" stroke-linejoin="miter" stroke-miterlimit="4" fill="#7CFC00" fill-opacity="1"/><path d="M109.53 42.5C106.94 44 104.03 44.75 100.79 44.75 97.2 44.75 94.09 43.96 91.48 42.4 88.86 40.83 86.87 38.69 85.51 35.99 84.14 33.28 83.46 30.29 83.46 27.02 83.46 23.75 84.19 20.59 85.64 17.84 87.1 15.09 89.17 12.9 91.85 11.29 94.53 9.68 97.63 8.87 101.13 8.87 104.09 8.87 106.75 9.46 109.11 10.64 111.47 11.82 113.48 13.55 115.11 15.83L109.24 20.67C107.24 17.71 104.53 16.23 101.12 16.23 98.16 16.23 95.84 17.21 94.16 19.16 92.48 21.12 91.64 23.62 91.64 26.67 91.64 29.72 92.54 32.2 94.34 34.25 96.14 36.3 98.54 37.32 101.54 37.32 103.36 37.32 105.07 36.85 106.66 35.92 108.25 34.99 109.55 33.68 110.55 32L116.08 36.03C114.31 38.85 112.12 41.01 109.53 42.51Z" stroke="none" stroke-width="1" stroke-linecap="butt" stroke-linejoin="miter" stroke-miterlimit="4" fill="#7CFC00" fill-opacity="1"/><path d="M129.86 18.89 129.86 44.35 122.36 44.35 122.36 18.89 119.16 18.89 119.16 11.89 122.36 11.89 122.36 0 129.86 0 129.86 11.9 135.69 11.9 135.69 18.9 129.86 18.9Z" stroke="none" stroke-width="1" stroke-linecap="butt" stroke-linejoin="miter" stroke-miterlimit="4" fill="#7CFC00" fill-opacity="1"/><path d="M171.49 44.34 163.44 44.34 163.44 38.68C162.26 40.59 160.81 42.08 159.11 43.15 157.4 44.22 155.25 44.75 152.66 44.75 148.97 44.75 145.98 43.65 143.69 41.44 141.39 39.23 140.24 35.99 140.24 31.72L140.24 9.68 148.5 9.68 148.5 30.01C148.5 32.47 149.06 34.31 150.17 35.54 151.28 36.77 152.87 37.38 154.91 37.38 157.37 37.38 159.37 36.52 160.91 34.79 162.46 33.06 163.23 30.74 163.23 27.83L163.23 9.68 171.49 9.68 171.49 44.35Z" stroke="none" stroke-width="1" stroke-linecap="butt" stroke-linejoin="miter" stroke-miterlimit="4" fill="#7CFC00" fill-opacity="1"/><path d="M197.59 16.67C196.04 16.1 194.54 15.82 193.09 15.82 191.64 15.82 190.38 16.14 189.47 16.78 188.56 17.42 188.1 18.28 188.1 19.37 188.1 20.55 188.62 21.4 189.67 21.9 190.72 22.4 192.58 22.9 195.27 23.4 197.82 23.9 199.93 24.45 201.62 25.04 203.3 25.63 204.75 26.59 205.95 27.91 207.16 29.23 207.76 31.05 207.76 33.37 207.76 36.83 206.43 39.59 203.77 41.66 201.11 43.73 197.73 44.76 193.64 44.76 190.68 44.76 187.83 44.19 185.08 43.05 182.33 41.91 180 40.3 178.08 38.21L182.65 32.48C184.01 34.16 185.79 35.44 187.97 36.3 190.15 37.17 192.29 37.6 194.39 37.6 195.94 37.6 197.19 37.32 198.14 36.75 199.1 36.18 199.57 35.37 199.57 34.33 199.57 33.29 199.08 32.43 198.1 31.91 197.12 31.39 195.47 30.9 193.15 30.44 190.51 29.94 188.32 29.38 186.57 28.77 184.82 28.16 183.28 27.13 181.96 25.7 180.64 24.27 179.98 22.3 179.98 19.8 179.98 16.3 181.23 13.6 183.73 11.71 186.23 9.82 189.33 8.88 193.01 8.88 195.42 8.88 197.76 9.3 200.04 10.14 202.31 10.98 204.25 12.2 205.84 13.79L201.54 19.18C200.45 18.09 199.13 17.26 197.58 16.69Z" stroke="none" stroke-width="1" stroke-linecap="butt" stroke-linejoin="miter" stroke-miterlimit="4" fill="#7CFC00" fill-opacity="1"/></g></svg>