<svg width="24" height="24" viewBox="0 -960 960 960" xmlns="http://www.w3.org/2000/svg" xmlns:xlink="http://www.w3.org/1999/xlink" fill="#E8EAED" overflow="hidden"><style>
.MsftOfcThm_Background1_Fill_v2 {
 fill:#FFFFFF; 
}
</style>
<path d="M390-80 322-200 190-200 100-360 168-480 100-600 190-760 322-760 390-880 570-880 638-760 770-760 860-600 792-480 860-360 770-200 638-200 570-80 390-80ZM638-520 724-520 768-600 724-680 638-680 593-600 638-520ZM438-400 522-400 567-480 522-560 438-560 393-480 438-400ZM438-640 522-640 568-721 523-800 437-800 392-721 438-640ZM237-520 322-520 367-600 322-680 237-680 192-600 237-520ZM237-280 322-280 367-360 322-440 236-440 192-360 237-280ZM437-160 523-160 568-239 522-320 438-320 392-239 437-160ZM638-280 723-280 768-360 723-440 638-440 593-360 638-280Z" class="MsftOfcThm_Background1_Fill_v2" stroke="none" stroke-width="1" stroke-linecap="butt" stroke-linejoin="miter" stroke-miterlimit="4" fill="#FFFFFF" fill-opacity="1"/></svg>