<svg width="24" height="24" viewBox="0 -960 960 960" xmlns="http://www.w3.org/2000/svg" xmlns:xlink="http://www.w3.org/1999/xlink" fill="#E8EAED" overflow="hidden"><style>
.MsftOfcThm_Background1_Fill_v2 {
 fill:#FFFFFF; 
}
</style>
<path d="M612-292 668-348 520-496 520-680 440-680 440-464 612-292ZM480-80C424.667-80 372.667-90.5 324-111.5 275.333-132.5 233-161 197-197 161-233 132.5-275.333 111.5-324 90.5-372.667 80-424.667 80-480 80-535.333 90.5-587.333 111.5-636 132.5-684.667 161-727 197-763 233-799 275.333-827.5 324-848.5 372.667-869.5 424.667-880 480-880 535.333-880 587.333-869.5 636-848.5 684.667-827.5 727-799 763-763 799-727 827.5-684.667 848.5-636 869.5-587.333 880-535.333 880-480 880-424.667 869.5-372.667 848.5-324 827.5-275.333 799-233 763-197 727-161 684.667-132.5 636-111.5 587.333-90.5 535.333-80 480-80ZM480-160C568.667-160 644.167-191.167 706.5-253.5 768.833-315.833 800-391.333 800-480 800-568.667 768.833-644.167 706.5-706.5 644.167-768.833 568.667-800 480-800 391.333-800 315.833-768.833 253.5-706.5 191.167-644.167 160-568.667 160-480 160-391.333 191.167-315.833 253.5-253.5 315.833-191.167 391.333-160 480-160Z" class="MsftOfcThm_Background1_Fill_v2" stroke="none" stroke-width="1" stroke-linecap="butt" stroke-linejoin="miter" stroke-miterlimit="4" fill="#FFFFFF" fill-opacity="1"/></svg>