<svg width="24" height="24" viewBox="0 -960 960 960" xmlns="http://www.w3.org/2000/svg" xmlns:xlink="http://www.w3.org/1999/xlink" fill="#E8EAED" overflow="hidden"><path d="M160-400C138-400 119.167-407.833 103.5-423.5 87.8333-439.167 80-458 80-480 80-502 87.8333-520.833 103.5-536.5 119.167-552.167 138-560 160-560 182-560 200.833-552.167 216.5-536.5 232.167-520.833 240-502 240-480 240-458 232.167-439.167 216.5-423.5 200.833-407.833 182-400 160-400ZM226-172 170-228 344-402 400-346 226-172ZM346-560 172-734 228-790 402-616 346-560ZM480-80C458-80 439.167-87.8333 423.5-103.5 407.833-119.167 400-138 400-160 400-182 407.833-200.833 423.5-216.5 439.167-232.167 458-240 480-240 502-240 520.833-232.167 536.5-216.5 552.167-200.833 560-182 560-160 560-138 552.167-119.167 536.5-103.5 520.833-87.8333 502-80 480-80ZM480-720C458-720 439.167-727.833 423.5-743.5 407.833-759.167 400-778 400-800 400-822 407.833-840.833 423.5-856.5 439.167-872.167 458-880 480-880 502-880 520.833-872.167 536.5-856.5 552.167-840.833 560-822 560-800 560-778 552.167-759.167 536.5-743.5 520.833-727.833 502-720 480-720ZM614-558 558-616 734-790 790-734 614-558ZM734-172 560-346 616-402 790-228 734-172ZM800-400C778-400 759.167-407.833 743.5-423.5 727.833-439.167 720-458 720-480 720-502 727.833-520.833 743.5-536.5 759.167-552.167 778-560 800-560 822-560 840.833-552.167 856.5-536.5 872.167-520.833 880-502 880-480 880-458 872.167-439.167 856.5-423.5 840.833-407.833 822-400 800-400Z" stroke="none" stroke-width="1" stroke-linecap="butt" stroke-linejoin="miter" stroke-miterlimit="4" fill="#7CFC00" fill-opacity="1"/></svg>